<svg xmlns="http://www.w3.org/2000/svg" viewBox="0 0 390 844" width="390" height="844">
  <defs>
    <style>
      text { font-family: -apple-system, BlinkMacSystemFont, 'Segoe UI', Roboto, Helvetica, Arial, sans-serif; }
    </style>
    <clipPath id="screen-clip">
      <rect x="0" y="0" width="390" height="844" rx="32"/>
    </clipPath>
  </defs>
  <g clip-path="url(#screen-clip)">
    <rect width="390" height="844" fill="#121212" rx="32"/>
    <rect x="0" y="0" width="390" height="48" fill="#121212" rx="0"/>
    <text x="195.0" y="75" fill="#e0e0e0" font-size="18" font-weight="600" text-anchor="middle">TermViewer: Connect to PC</text>
    <circle cx="305" cy="70" r="12" fill="none" stroke="#888888" stroke-width="1.5"/>
    <line x1="293" y1="70" x2="317" y2="70" stroke="#888888" stroke-width="1"/>
    <ellipse cx="305" cy="70" rx="6" ry="12" fill="none" stroke="#888888" stroke-width="1"/>
    <circle cx="345" cy="70" r="10" fill="none" stroke="#888888" stroke-width="1.5" stroke-dasharray="50 13"/>
    <text x="24" y="110" fill="#888888" font-size="14" font-weight="normal" text-anchor="start">Manual Connect:</text>
    <text x="24" y="155" fill="#888888" font-size="15" font-weight="normal" text-anchor="start">Host IP</text>
    <line x1="24" y1="163" x2="366" y2="163" stroke="#333333" stroke-width="1"/>
    <text x="24" y="180" fill="#888888" font-size="11" font-weight="normal" text-anchor="start">Port</text>
    <text x="24" y="202" fill="#e0e0e0" font-size="15" font-weight="normal" text-anchor="start">24242</text>
    <line x1="24" y1="210" x2="185.0" y2="210" stroke="#333333" stroke-width="1"/>
    <text x="205.0" y="202" fill="#888888" font-size="15" font-weight="normal" text-anchor="start">Password</text>
    <line x1="205.0" y1="210" x2="366" y2="210" stroke="#333333" stroke-width="1"/>
    <rect x="24" y="240" width="200" height="44" fill="#3a3a3e" rx="12"/>
    <text x="124.0" y="267.0" fill="#e0e0e0" font-size="15" font-weight="500" text-anchor="middle">Connect Manually</text>
    <rect x="24" y="300" width="280" height="44" fill="#121212" rx="22" stroke="#444444" stroke-width="1"/>
    <circle cx="60" cy="322" r="14" fill="none" stroke="#bb86fc" stroke-width="1.5"/>
    <line x1="52" y1="322" x2="68" y2="322" stroke="#bb86fc" stroke-width="1"/>
    <line x1="60" y1="314" x2="60" y2="330" stroke="#bb86fc" stroke-width="1"/>
    <text x="82" y="327" fill="#e0e0e0" font-size="13" font-weight="normal" text-anchor="start">Remote Access (OIDC / QR)</text>
    <line x1="24" y1="370" x2="366" y2="370" stroke="#333333" stroke-width="1"/>
    <text x="24" y="400" fill="#e0e0e0" font-size="14" font-weight="600" text-anchor="start">Discovered Agents on LAN:</text>
    <rect x="24" y="425" width="342" height="65" fill="#2a2a2e" rx="12"/>
    <rect x="52" y="443" width="24" height="17" fill="none" rx="2" stroke="#888888" stroke-width="1"/>
    <line x1="58" y1="463" x2="70" y2="470" stroke="#888888" stroke-width="1"/>
    <line x1="70" y1="463" x2="82" y2="470" stroke="#888888" stroke-width="1"/>
    <text x="90" y="453" fill="#e0e0e0" font-size="15" font-weight="500" text-anchor="start">gaming-desktop</text>
    <text x="90" y="473" fill="#888888" font-size="12" font-weight="normal" text-anchor="start">192.168.1.42:24242</text>
    <rect x="24" y="505" width="342" height="65" fill="#2a2a2e" rx="12"/>
    <rect x="52" y="523" width="24" height="17" fill="none" rx="2" stroke="#888888" stroke-width="1"/>
    <line x1="58" y1="543" x2="70" y2="550" stroke="#888888" stroke-width="1"/>
    <line x1="70" y1="543" x2="82" y2="550" stroke="#888888" stroke-width="1"/>
    <text x="90" y="533" fill="#e0e0e0" font-size="15" font-weight="500" text-anchor="start">dev-workstation</text>
    <text x="90" y="553" fill="#888888" font-size="12" font-weight="normal" text-anchor="start">192.168.1.105:24242</text>
  </g>
</svg>