<svg xmlns="http://www.w3.org/2000/svg" viewBox="0 0 390 844" width="390" height="844">
  <defs>
    <style>
      text { font-family: -apple-system, BlinkMacSystemFont, 'Segoe UI', Roboto, Helvetica, Arial, sans-serif; }
    </style>
    <clipPath id="screen-clip">
      <rect x="0" y="0" width="390" height="844" rx="32"/>
    </clipPath>
  </defs>
  <g clip-path="url(#screen-clip)">
    <rect width="390" height="844" fill="#121212" rx="32"/>
    <path d="M30 60 L18 70 L30 80" fill="none" stroke="#e0e0e0" stroke-width="2"/>
    <text x="195.0" y="75" fill="#e0e0e0" font-size="18" font-weight="600" text-anchor="middle">Choose Terminal Session</text>
    <circle cx="355" cy="70" r="10" fill="none" stroke="#888888" stroke-width="1.5" stroke-dasharray="50 13"/>
    <rect x="24" y="105" width="342" height="170" fill="#2a2a2e" rx="12"/>
    <rect x="44" y="120" width="28" height="28" fill="none" rx="4" stroke="#4caf50" stroke-width="1.5"/>
    <polygon points="52,127 52,141 64,134" fill="#4caf50"/>
    <text x="82" y="135" fill="#e0e0e0" font-size="16" font-weight="500" text-anchor="start">tmux: 0</text>
    <text x="82" y="153" fill="#4caf50" font-size="11" font-weight="500" text-anchor="start">MODE: SHARED</text>
    <path d="M325 130 L335 140 L325 150" fill="none" stroke="#888888" stroke-width="2"/>
    <rect x="36" y="170" width="318" height="90" fill="#0d0d0d" rx="4"/>
    <text x="48" y="195" fill="#4caf50" font-size="11" font-family="monospace">user@gaming-desktop:~$</text>
    <text x="48" y="212" fill="#888888" font-size="11" font-family="monospace">htop</text>
    <text x="48" y="229" fill="#26c6da" font-size="11" font-family="monospace">Tasks: 234, 891 thr; 2 running</text>
    <text x="48" y="246" fill="#888888" font-size="11" font-family="monospace">Load average: 0.52 0.48 0.41</text>
    <rect x="24" y="295" width="342" height="170" fill="#2a2a2e" rx="12"/>
    <rect x="44" y="310" width="28" height="28" fill="none" rx="4" stroke="#bb86fc" stroke-width="1.5"/>
    <polygon points="52,317 52,331 64,324" fill="#bb86fc"/>
    <text x="82" y="325" fill="#e0e0e0" font-size="16" font-weight="500" text-anchor="start">TermViewer: dev</text>
    <text x="82" y="343" fill="#bb86fc" font-size="11" font-weight="500" text-anchor="start">MODE: EXCLUSIVE</text>
    <path d="M325 320 L335 330 L325 340" fill="none" stroke="#888888" stroke-width="2"/>
    <rect x="36" y="360" width="318" height="90" fill="#0d0d0d" rx="4"/>
    <text x="48" y="385" fill="#4caf50" font-size="11" font-family="monospace">user@gaming-desktop:~/projects$</text>
    <text x="48" y="402" fill="#888888" font-size="11" font-family="monospace">git status</text>
    <text x="48" y="419" fill="#e0e0e0" font-size="11" font-family="monospace">On branch main</text>
    <text x="48" y="436" fill="#4caf50" font-size="11" font-family="monospace">nothing to commit, working tree clean</text>
    <rect x="24" y="490" width="342" height="50" fill="#3a3a3e" rx="12"/>
    <text x="195.0" y="520.0" fill="#e0e0e0" font-size="16" font-weight="500" text-anchor="middle">+   Start New Session</text>
  </g>
</svg>