<svg xmlns="http://www.w3.org/2000/svg" viewBox="0 0 390 844" width="390" height="844">
  <defs>
    <style>
      text { font-family: -apple-system, BlinkMacSystemFont, 'Segoe UI', Roboto, Helvetica, Arial, sans-serif; }
    </style>
    <clipPath id="screen-clip">
      <rect x="0" y="0" width="390" height="844" rx="32"/>
    </clipPath>
  </defs>
  <g clip-path="url(#screen-clip)">
    <rect width="390" height="844" fill="#121212" rx="32"/>
    <rect x="0" y="0" width="390" height="52" fill="#1e1e1e" rx="0"/>
    <path d="M25 22 L13 28 L25 34" fill="none" stroke="#e0e0e0" stroke-width="2"/>
    <text x="55" y="32" fill="#e0e0e0" font-size="14" font-weight="500" text-anchor="start">Term...</text>
    <circle cx="130" cy="28" r="12" fill="none" stroke="#888888" stroke-width="1"/>
    <circle cx="170" cy="28" r="12" fill="none" stroke="#888888" stroke-width="1"/>
    <circle cx="210" cy="28" r="12" fill="none" stroke="#888888" stroke-width="1"/>
    <circle cx="250" cy="28" r="12" fill="none" stroke="#888888" stroke-width="1"/>
    <circle cx="290" cy="28" r="12" fill="none" stroke="#888888" stroke-width="1"/>
    <line x1="340" y1="20" x2="354" y2="36" stroke="#888888" stroke-width="2"/>
    <line x1="354" y1="20" x2="340" y2="36" stroke="#888888" stroke-width="2"/>
    <rect x="0" y="56" width="390" height="36" fill="#1e1e1e" rx="0"/>
    <text x="97.5" y="80" fill="#e0e0e0" font-size="13" font-weight="600" text-anchor="middle">TERMINAL</text>
    <text x="292.5" y="80" fill="#888888" font-size="13" font-weight="500" text-anchor="middle">FILES</text>
    <rect x="0" y="89" width="195.0" height="3" fill="#4caf50" rx="0"/>
    <rect x="0" y="100" width="390" height="640" fill="#0a0a0a" rx="0"/>
    <text x="12" y="120" fill="#4caf50" font-family="monospace" font-size="11.5">user@dev-server</text>
    <text x="117" y="120" fill="#888888" font-family="monospace" font-size="11.5">:~$ </text>
    <text x="145" y="120" fill="#e0e0e0" font-family="monospace" font-size="11.5">neofetch</text>
    <text x="12" y="138" fill="#26c6da" font-family="monospace" font-size="11.5">   _____                  __     ___</text>
    <text x="12" y="156" fill="#26c6da" font-family="monospace" font-size="11.5">  |_   _|__ _ _ _ __ \   / (_)___\ \    ___  _ __</text>
    <text x="12" y="174" fill="#26c6da" font-family="monospace" font-size="11.5">    | |/ -_) '_| '  \ V /| / -_)\ \  / -_)| '_|</text>
    <text x="12" y="192" fill="#26c6da" font-family="monospace" font-size="11.5">    |_|\___|_| |_|_|_\_/ |_\___| \_\ \___||_|</text>
    <text x="12" y="228" fill="#e0e0e0" font-family="monospace" font-size="11.5">  OS: Ubuntu 24.04 LTS x86_64</text>
    <text x="12" y="246" fill="#e0e0e0" font-family="monospace" font-size="11.5">  Host: Custom Build</text>
    <text x="12" y="264" fill="#e0e0e0" font-family="monospace" font-size="11.5">  Kernel: 6.8.0-generic</text>
    <text x="12" y="282" fill="#e0e0e0" font-family="monospace" font-size="11.5">  Uptime: 3 days, 7 hours</text>
    <text x="12" y="300" fill="#e0e0e0" font-family="monospace" font-size="11.5">  Shell: zsh 5.9</text>
    <text x="12" y="318" fill="#e0e0e0" font-family="monospace" font-size="11.5">  CPU: AMD Ryzen 7 5800X (16)</text>
    <text x="12" y="336" fill="#e0e0e0" font-family="monospace" font-size="11.5">  Memory: 4821MiB / 32768MiB</text>
    <text x="12" y="372" fill="#4caf50" font-family="monospace" font-size="11.5">user@dev-server</text>
    <text x="117" y="372" fill="#888888" font-family="monospace" font-size="11.5">:~$ </text>
    <text x="145" y="372" fill="#e0e0e0" font-family="monospace" font-size="11.5">ls -la projects/</text>
    <text x="12" y="390" fill="#e0e0e0" font-family="monospace" font-size="11.5">total 28</text>
    <text x="12" y="408" fill="#26c6da" font-family="monospace" font-size="11.5">drwxr-xr-x</text>
    <text x="82" y="408" fill="#888888" font-family="monospace" font-size="11.5">  5 user user 4096 Mar 25 </text>
    <text x="264" y="408" fill="#e0e0e0" font-family="monospace" font-size="11.5">termviewer/</text>
    <text x="12" y="426" fill="#26c6da" font-family="monospace" font-size="11.5">drwxr-xr-x</text>
    <text x="82" y="426" fill="#888888" font-family="monospace" font-size="11.5">  3 user user 4096 Mar 24 </text>
    <text x="264" y="426" fill="#e0e0e0" font-family="monospace" font-size="11.5">dotfiles/</text>
    <text x="12" y="444" fill="#26c6da" font-family="monospace" font-size="11.5">drwxr-xr-x</text>
    <text x="82" y="444" fill="#888888" font-family="monospace" font-size="11.5">  8 user user 4096 Mar 22 </text>
    <text x="264" y="444" fill="#e0e0e0" font-family="monospace" font-size="11.5">webapp/</text>
    <text x="12" y="480" fill="#4caf50" font-family="monospace" font-size="11.5">user@dev-server</text>
    <text x="117" y="480" fill="#888888" font-family="monospace" font-size="11.5">:~/projects$ </text>
    <text x="208" y="480" fill="#ffca28" font-family="monospace" font-size="11.5">cd termviewer</text>
    <text x="12" y="498" fill="#4caf50" font-family="monospace" font-size="11.5">user@dev-server</text>
    <text x="117" y="498" fill="#888888" font-family="monospace" font-size="11.5">:~/projects/termviewer$ </text>
    <text x="285" y="498" fill="#e0e0e0" font-family="monospace" font-size="11.5">git log --oneline -3</text>
    <text x="12" y="516" fill="#ffca28" font-family="monospace" font-size="11.5">a3f2c1d</text>
    <text x="61" y="516" fill="#e0e0e0" font-family="monospace" font-size="11.5"> feat: add clipboard sync</text>
    <text x="12" y="534" fill="#ffca28" font-family="monospace" font-size="11.5">b7e4a92</text>
    <text x="61" y="534" fill="#e0e0e0" font-family="monospace" font-size="11.5"> fix: PTY resize on reconnect</text>
    <text x="12" y="552" fill="#ffca28" font-family="monospace" font-size="11.5">c1d8f3e</text>
    <text x="61" y="552" fill="#e0e0e0" font-family="monospace" font-size="11.5"> docs: update API spec</text>
    <text x="12" y="588" fill="#4caf50" font-family="monospace" font-size="11.5">user@dev-server</text>
    <text x="117" y="588" fill="#888888" font-family="monospace" font-size="11.5">:~/projects/termviewer$ </text>
    <text x="285" y="588" fill="#e0e0e0" font-family="monospace" font-size="11.5">▌</text>
    <line x1="0" y1="588" x2="390" y2="588" stroke="#333333" stroke-width="1"/>
    <rect x="0" y="595" width="390" height="45" fill="#1e1e1e" rx="0"/>
    <text x="12" y="613" fill="#4caf50" font-size="10" font-family="monospace">CPU 12%</text>
    <text x="80" y="613" fill="#26c6da" font-size="10" font-family="monospace">RAM 15%</text>
    <text x="150" y="613" fill="#888888" font-size="10" font-family="monospace">DISK 45%</text>
    <text x="228" y="613" fill="#888888" font-size="10" font-family="monospace">UP 3d 7h</text>
    <rect x="12" y="619" width="60" height="4" fill="#333" rx="2"/>
    <rect x="12" y="619" width="7" height="4" fill="#4caf50" rx="2"/>
    <rect x="80" y="619" width="60" height="4" fill="#333" rx="2"/>
    <rect x="80" y="619" width="9" height="4" fill="#26c6da" rx="2"/>
    <rect x="150" y="619" width="60" height="4" fill="#333" rx="2"/>
    <rect x="150" y="619" width="27" height="4" fill="#ffca28" rx="2"/>
    <rect x="0" y="750" width="390" height="30" fill="#1e1e1e" rx="0"/>
    <rect x="12" y="758" width="14" height="14" fill="#ef5350" rx="2"/>
    <text x="30" y="770" fill="#e0e0e0" font-size="12" font-weight="normal" text-anchor="start">0</text>
    <text x="55" y="770" fill="#888888" font-size="12" font-weight="normal" text-anchor="start">|</text>
    <text x="70" y="770" fill="#e0e0e0" font-size="12" font-weight="normal" text-anchor="start">📂 TermViewer</text>
    <rect x="0" y="784" width="390" height="60" fill="#1a1a1a" rx="0"/>
    <rect x="3.0" y="790" width="49.714285714285715" height="38" fill="#2a2a2e" rx="6"/>
    <text x="27.857142857142858" y="814" fill="#e0e0e0" font-size="11" font-weight="600" text-anchor="middle">COPY</text>
    <rect x="58.714285714285715" y="790" width="49.714285714285715" height="38" fill="#2a2a2e" rx="6"/>
    <text x="83.57142857142857" y="814" fill="#e0e0e0" font-size="11" font-weight="600" text-anchor="middle">PASTE</text>
    <rect x="114.42857142857143" y="790" width="49.714285714285715" height="38" fill="#2a2a2e" rx="6"/>
    <text x="139.28571428571428" y="814" fill="#e0e0e0" font-size="11" font-weight="600" text-anchor="middle">ESC</text>
    <rect x="170.14285714285714" y="790" width="49.714285714285715" height="38" fill="#2a2a2e" rx="6"/>
    <text x="195.0" y="814" fill="#e0e0e0" font-size="11" font-weight="600" text-anchor="middle">TAB</text>
    <rect x="225.85714285714286" y="790" width="49.714285714285715" height="38" fill="#2a2a2e" rx="6"/>
    <text x="250.71428571428572" y="814" fill="#e0e0e0" font-size="11" font-weight="600" text-anchor="middle">CTRL</text>
    <rect x="281.57142857142856" y="790" width="49.714285714285715" height="38" fill="#2a2a2e" rx="6"/>
    <text x="306.4285714285714" y="814" fill="#e0e0e0" font-size="11" font-weight="600" text-anchor="middle">UP</text>
    <rect x="337.2857142857143" y="790" width="49.714285714285715" height="38" fill="#2a2a2e" rx="6"/>
    <text x="362.1428571428571" y="814" fill="#e0e0e0" font-size="11" font-weight="600" text-anchor="middle">DOWN</text>
  </g>
</svg>